<?xml version="1.0" standalone="no"?>
<!DOCTYPE svg PUBLIC "-//W3C//DTD SVG 20010904//EN"
 "http://www.w3.org/TR/2001/REC-SVG-20010904/DTD/svg10.dtd">
<svg version="1.0" xmlns="http://www.w3.org/2000/svg"
 width="200.000000pt" height="200.000000pt" viewBox="0 0 200.000000 200.000000"
 preserveAspectRatio="xMidYMid meet">

<g transform="translate(0.000000,200.000000) scale(0.100000,-0.100000)"
fill="#000000" stroke="none">
<path d="M437 1652 c-103 -103 -187 -194 -187 -203 0 -21 20 -39 44 -39 13 0
73 52 163 142 l143 143 0 -513 c0 -335 4 -520 10 -533 12 -21 50 -25 68 -7 9
9 12 141 12 532 l0 520 143 -142 c87 -86 151 -142 163 -142 24 0 44 18 44 40
0 23 -371 390 -395 390 -13 0 -89 -69 -208 -188z"/>
<path d="M1222 1818 c-9 -9 -12 -141 -12 -532 l0 -521 -143 143 c-146 146
-175 164 -197 123 -5 -11 -10 -23 -10 -27 0 -4 84 -92 187 -196 146 -147 193
-188 213 -188 20 0 67 41 213 188 103 104 187 192 187 196 0 4 -5 16 -10 27
-22 41 -51 23 -207 -133 l-153 -153 0 531 c0 548 0 554 -40 554 -9 0 -21 -5
-28 -12z"/>
<path d="M177 844 c-4 -4 -7 -156 -7 -339 0 -244 3 -334 12 -343 19 -19 1621
-17 1637 2 8 9 11 109 9 347 l-3 334 -95 0 c-92 0 -95 -1 -98 -23 -5 -37 15
-52 69 -52 l49 0 0 -270 0 -270 -750 0 -750 0 0 270 0 270 49 0 c54 0 74 15
69 52 -3 22 -8 23 -93 26 -50 1 -94 0 -98 -4z"/>
</g>
</svg>
