<?xml version="1.0" standalone="no"?>
<!DOCTYPE svg PUBLIC "-//W3C//DTD SVG 20010904//EN"
 "http://www.w3.org/TR/2001/REC-SVG-20010904/DTD/svg10.dtd">
<svg version="1.0" xmlns="http://www.w3.org/2000/svg"
 width="1200.000000pt" height="1200.000000pt" viewBox="0 0 1200.000000 1200.000000"
 preserveAspectRatio="xMidYMid meet">

<g transform="translate(0.000000,1200.000000) scale(0.100000,-0.100000)"
fill="#000000" stroke="none">
<path d="M5690 9365 c-30 -9 -75 -27 -100 -42 -28 -16 -369 -350 -896 -877
-725 -724 -855 -859 -878 -906 -116 -243 21 -521 283 -575 90 -19 167 -8 261
37 58 28 115 82 544 510 263 263 480 478 482 478 2 0 5 -710 6 -1577 l3 -1578
32 -67 c79 -168 264 -264 438 -228 87 18 134 42 196 98 66 60 113 144 128 226
8 41 11 533 11 1595 l0 1535 488 -485 c526 -524 530 -528 654 -547 179 -27
354 65 432 228 29 60 31 73 31 170 0 183 62 109 -920 1091 -794 794 -855 852
-920 885 -86 42 -188 53 -275 29z"/>
<path d="M2860 5325 c-149 -42 -262 -164 -290 -314 -14 -77 -14 -1703 1 -1773
25 -121 107 -223 225 -283 l59 -30 2915 -3 c3241 -2 2963 -8 3076 67 73 49
126 117 153 199 21 62 21 70 19 960 l-3 897 -26 55 c-40 85 -108 154 -197 197
-72 36 -81 38 -171 38 -87 0 -102 -3 -163 -32 -90 -42 -160 -110 -201 -192
l-32 -66 -5 -660 -5 -660 -2422 -2 -2423 -3 0 633 c0 695 0 691 -62 794 -40
67 -123 136 -198 164 -73 28 -180 33 -250 14z"/>
</g>
</svg>
