<svg xmlns="http://www.w3.org/2000/svg" xmlns:xlink="http://www.w3.org/1999/xlink" contentStyleType="text/css" data-diagram-type="CLASS" height="1273px" preserveAspectRatio="none" style="width:545px;height:1273px;background:#FFFFFF;" version="1.1" viewBox="0 0 545 1273" width="545px" zoomAndPan="magnify"><defs/><g><!--class spuletyp--><g class="entity" data-entity="spuletyp" data-source-line="2" data-uid="ent0002" id="entity_spuletyp"><rect fill="#F1F1F1" height="162.0781" rx="2.5" ry="2.5" style="stroke:#181818;stroke-width:0.5;" width="174.1621" x="324.1" y="1104.61"/><ellipse cx="376.8222" cy="1120.61" fill="#ADD1B2" rx="11" ry="11" style="stroke:#181818;stroke-width:1;"/><path d="M380.9315,1126.61 L373.2128,1126.61 L373.2128,1114.2194 L380.9315,1114.2194 L380.9315,1116.3756 L375.6659,1116.3756 L375.6659,1119.0475 L380.4315,1119.0475 L380.4315,1121.2038 L375.6659,1121.2038 L375.6659,1124.4538 L380.9315,1124.4538 L380.9315,1126.61 Z " fill="#000000"/><text fill="#000000" font-family="sans-serif" font-size="14" lengthAdjust="spacing" textLength="60.2178" x="397.3222" y="1125.4567">spuletyp</text><line style="stroke:#181818;stroke-width:0.5;" x1="325.1" x2="497.2621" y1="1136.61" y2="1136.61"/><ellipse cx="335.1" cy="1150.2584" fill="#000000" rx="3" ry="3" style="stroke:#000000;stroke-width:1;"/><text fill="#000000" font-family="sans-serif" font-size="14" lengthAdjust="spacing" textLength="115.7188" x="344.1" y="1153.6051">id : integer &#171;PK&#187;</text><line style="stroke:#181818;stroke-width:1;" x1="325.1" x2="497.2621" y1="1160.9069" y2="1160.9069"/><text fill="#000000" font-family="sans-serif" font-size="14" lengthAdjust="spacing" textLength="106.8457" x="330.1" y="1177.902">name : varchar</text><text fill="#000000" font-family="sans-serif" font-size="14" lengthAdjust="spacing" textLength="154.3896" x="330.1" y="1194.1989">schenkelzahl : integer</text><text fill="#000000" font-family="sans-serif" font-size="14" lengthAdjust="spacing" textLength="145.2842" x="330.1" y="1210.4957">bandbreite : decimal</text><text fill="#000000" font-family="sans-serif" font-size="14" lengthAdjust="spacing" textLength="162.1621" x="330.1" y="1226.7926">schichthoehe : decimal</text><text fill="#000000" font-family="sans-serif" font-size="14" lengthAdjust="spacing" textLength="160.1045" x="330.1" y="1243.0895">durchmesser : decimal</text><text fill="#000000" font-family="sans-serif" font-size="14" lengthAdjust="spacing" textLength="87.9717" x="330.1" y="1259.3864">notiz : string</text></g><!--class messsondentyp--><g class="entity" data-entity="messsondentyp" data-source-line="13" data-uid="ent0003" id="entity_messsondentyp"><rect fill="#F1F1F1" height="145.7813" rx="2.5" ry="2.5" style="stroke:#181818;stroke-width:0.5;" width="173.3896" x="105.48" y="865.53"/><ellipse cx="134.3329" cy="881.53" fill="#ADD1B2" rx="11" ry="11" style="stroke:#181818;stroke-width:1;"/><path d="M138.4423,887.53 L130.7235,887.53 L130.7235,875.1394 L138.4423,875.1394 L138.4423,877.2956 L133.1766,877.2956 L133.1766,879.9675 L137.9423,879.9675 L137.9423,882.1238 L133.1766,882.1238 L133.1766,885.3738 L138.4423,885.3738 L138.4423,887.53 Z " fill="#000000"/><text fill="#000000" font-family="sans-serif" font-size="14" lengthAdjust="spacing" textLength="110.6055" x="151.4113" y="886.3767">messsondentyp</text><line style="stroke:#181818;stroke-width:0.5;" x1="106.48" x2="277.8696" y1="897.53" y2="897.53"/><ellipse cx="116.48" cy="911.1784" fill="#000000" rx="3" ry="3" style="stroke:#000000;stroke-width:1;"/><text fill="#000000" font-family="sans-serif" font-size="14" lengthAdjust="spacing" textLength="115.7188" x="125.48" y="914.5251">id : integer &#171;PK&#187;</text><line style="stroke:#181818;stroke-width:1;" x1="106.48" x2="277.8696" y1="921.8269" y2="921.8269"/><text fill="#000000" font-family="sans-serif" font-size="14" lengthAdjust="spacing" textLength="106.8457" x="111.48" y="938.822">name : varchar</text><text fill="#000000" font-family="sans-serif" font-size="14" lengthAdjust="spacing" textLength="110.0586" x="111.48" y="955.1189">breite : decimal</text><text fill="#000000" font-family="sans-serif" font-size="14" lengthAdjust="spacing" textLength="112.3486" x="111.48" y="971.4157">hoehe : decimal</text><text fill="#000000" font-family="sans-serif" font-size="14" lengthAdjust="spacing" textLength="161.3896" x="111.48" y="987.7126">wicklungszahl : integer</text><text fill="#000000" font-family="sans-serif" font-size="14" lengthAdjust="spacing" textLength="87.9717" x="111.48" y="1004.0095">notiz : string</text></g><!--class spule--><g class="entity" data-entity="spule" data-source-line="24" data-uid="ent0004" id="entity_spule"><rect fill="#F1F1F1" height="178.375" rx="2.5" ry="2.5" style="stroke:#181818;stroke-width:0.5;" width="194.5469" x="313.9" y="849.24"/><ellipse cx="388.1451" cy="865.24" fill="#ADD1B2" rx="11" ry="11" style="stroke:#181818;stroke-width:1;"/><path d="M392.2545,871.24 L384.5357,871.24 L384.5357,858.8494 L392.2545,858.8494 L392.2545,861.0056 L386.9889,861.0056 L386.9889,863.6775 L391.7545,863.6775 L391.7545,865.8338 L386.9889,865.8338 L386.9889,869.0838 L392.2545,869.0838 L392.2545,871.24 Z " fill="#000000"/><text fill="#000000" font-family="sans-serif" font-size="14" lengthAdjust="spacing" textLength="37.5566" x="408.6451" y="870.0867">spule</text><line style="stroke:#181818;stroke-width:0.5;" x1="314.9" x2="507.4469" y1="881.24" y2="881.24"/><ellipse cx="324.9" cy="894.8884" fill="#000000" rx="3" ry="3" style="stroke:#000000;stroke-width:1;"/><text fill="#000000" font-family="sans-serif" font-size="14" lengthAdjust="spacing" textLength="115.7188" x="333.9" y="898.2351">id : integer &#171;PK&#187;</text><line style="stroke:#181818;stroke-width:1;" x1="314.9" x2="507.4469" y1="905.5369" y2="905.5369"/><text fill="#000000" font-family="sans-serif" font-size="14" lengthAdjust="spacing" textLength="182.5469" x="319.9" y="922.532">spuletyp_id : integer &#171;FK&#187;</text><text fill="#000000" font-family="sans-serif" font-size="14" lengthAdjust="spacing" textLength="140.1572" x="319.9" y="938.8289">auftragsnr : varchar</text><text fill="#000000" font-family="sans-serif" font-size="14" lengthAdjust="spacing" textLength="161.499" x="319.9" y="955.1257">auftragsposnr : integer</text><text fill="#000000" font-family="sans-serif" font-size="14" lengthAdjust="spacing" textLength="83.4395" x="319.9" y="971.4226">ur : decimal</text><text fill="#000000" font-family="sans-serif" font-size="14" lengthAdjust="spacing" textLength="111.9795" x="319.9" y="987.7195">einheit : integer</text><text fill="#000000" font-family="sans-serif" font-size="14" lengthAdjust="spacing" textLength="117.0928" x="319.9" y="1004.0164">omega : decimal</text><text fill="#000000" font-family="sans-serif" font-size="14" lengthAdjust="spacing" textLength="87.9717" x="319.9" y="1020.3132">notiz : string</text></g><!--class messeinstellung--><g class="entity" data-entity="messeinstellung" data-source-line="37" data-uid="ent0005" id="entity_messeinstellung"><rect fill="#F1F1F1" height="178.375" rx="2.5" ry="2.5" style="stroke:#181818;stroke-width:0.5;" width="244.9346" x="150.71" y="593.86"/><ellipse cx="211.9156" cy="609.86" fill="#ADD1B2" rx="11" ry="11" style="stroke:#181818;stroke-width:1;"/><path d="M216.0249,615.86 L208.3062,615.86 L208.3062,603.4694 L216.0249,603.4694 L216.0249,605.6256 L210.7593,605.6256 L210.7593,608.2975 L215.5249,608.2975 L215.5249,610.4538 L210.7593,610.4538 L210.7593,613.7038 L216.0249,613.7038 L216.0249,615.86 Z " fill="#000000"/><text fill="#000000" font-family="sans-serif" font-size="14" lengthAdjust="spacing" textLength="114.0234" x="232.4156" y="614.7067">messeinstellung</text><line style="stroke:#181818;stroke-width:0.5;" x1="151.71" x2="394.6446" y1="625.86" y2="625.86"/><ellipse cx="161.71" cy="639.5084" fill="#000000" rx="3" ry="3" style="stroke:#000000;stroke-width:1;"/><text fill="#000000" font-family="sans-serif" font-size="14" lengthAdjust="spacing" textLength="115.7188" x="170.71" y="642.8551">id : integer &#171;PK&#187;</text><line style="stroke:#181818;stroke-width:1;" x1="151.71" x2="394.6446" y1="650.1569" y2="650.1569"/><text fill="#000000" font-family="sans-serif" font-size="14" lengthAdjust="spacing" textLength="159.8857" x="156.71" y="667.152">spule_id : integer &#171;FK&#187;</text><text fill="#000000" font-family="sans-serif" font-size="14" lengthAdjust="spacing" textLength="232.9346" x="156.71" y="683.4489">messsondentyp_id : integer &#171;FK&#187;</text><text fill="#000000" font-family="sans-serif" font-size="14" lengthAdjust="spacing" textLength="106.8457" x="156.71" y="699.7457">name : varchar</text><text fill="#000000" font-family="sans-serif" font-size="14" lengthAdjust="spacing" textLength="214.0127" x="156.71" y="716.0426">sonden_pro_schenkel : integer</text><text fill="#000000" font-family="sans-serif" font-size="14" lengthAdjust="spacing" textLength="226.2148" x="156.71" y="732.3395">bemessungsspannung : decimal</text><text fill="#000000" font-family="sans-serif" font-size="14" lengthAdjust="spacing" textLength="218.9688" x="156.71" y="748.6364">bemessungsfrequenz : decimal</text><text fill="#000000" font-family="sans-serif" font-size="14" lengthAdjust="spacing" textLength="87.9717" x="156.71" y="764.9332">notiz : string</text></g><!--class messung--><g class="entity" data-entity="messung" data-source-line="49" data-uid="ent0006" id="entity_messung"><rect fill="#F1F1F1" height="129.4844" rx="2.5" ry="2.5" style="stroke:#181818;stroke-width:0.5;" width="248.3525" x="7" y="387.38"/><ellipse cx="95.1904" cy="403.38" fill="#ADD1B2" rx="11" ry="11" style="stroke:#181818;stroke-width:1;"/><path d="M99.2998,409.38 L91.5811,409.38 L91.5811,396.9894 L99.2998,396.9894 L99.2998,399.1456 L94.0342,399.1456 L94.0342,401.8175 L98.7998,401.8175 L98.7998,403.9738 L94.0342,403.9738 L94.0342,407.2238 L99.2998,407.2238 L99.2998,409.38 Z " fill="#000000"/><text fill="#000000" font-family="sans-serif" font-size="14" lengthAdjust="spacing" textLength="63.4717" x="115.6904" y="408.2267">messung</text><line style="stroke:#181818;stroke-width:0.5;" x1="8" x2="254.3525" y1="419.38" y2="419.38"/><ellipse cx="18" cy="433.0284" fill="#000000" rx="3" ry="3" style="stroke:#000000;stroke-width:1;"/><text fill="#000000" font-family="sans-serif" font-size="14" lengthAdjust="spacing" textLength="115.7188" x="27" y="436.3751">id : integer &#171;PK&#187;</text><line style="stroke:#181818;stroke-width:1;" x1="8" x2="254.3525" y1="443.6769" y2="443.6769"/><text fill="#000000" font-family="sans-serif" font-size="14" lengthAdjust="spacing" textLength="236.3525" x="13" y="460.672">messeinstellung_id : integer &#171;FK&#187;</text><text fill="#000000" font-family="sans-serif" font-size="14" lengthAdjust="spacing" textLength="210.7178" x="13" y="476.9689">anfangszeitpunkt : timestamp</text><text fill="#000000" font-family="sans-serif" font-size="14" lengthAdjust="spacing" textLength="181.0771" x="13" y="493.2657">endzeitpunkt : timestamp</text><text fill="#000000" font-family="sans-serif" font-size="14" lengthAdjust="spacing" textLength="87.9717" x="13" y="509.5626">notiz : string</text></g><!--class messsonde--><g class="entity" data-entity="messsonde" data-source-line="58" data-uid="ent0007" id="entity_messsonde"><rect fill="#F1F1F1" height="113.1875" rx="2.5" ry="2.5" style="stroke:#181818;stroke-width:0.5;" width="197.8008" x="32.28" y="197.19"/><ellipse cx="87.3947" cy="213.19" fill="#ADD1B2" rx="11" ry="11" style="stroke:#181818;stroke-width:1;"/><path d="M91.5041,219.19 L83.7854,219.19 L83.7854,206.7994 L91.5041,206.7994 L91.5041,208.9556 L86.2385,208.9556 L86.2385,211.6275 L91.0041,211.6275 L91.0041,213.7838 L86.2385,213.7838 L86.2385,217.0338 L91.5041,217.0338 L91.5041,219.19 Z " fill="#000000"/><text fill="#000000" font-family="sans-serif" font-size="14" lengthAdjust="spacing" textLength="79.0713" x="107.8947" y="218.0367">messsonde</text><line style="stroke:#181818;stroke-width:0.5;" x1="33.28" x2="229.0808" y1="229.19" y2="229.19"/><ellipse cx="43.28" cy="242.8384" fill="#000000" rx="3" ry="3" style="stroke:#000000;stroke-width:1;"/><text fill="#000000" font-family="sans-serif" font-size="14" lengthAdjust="spacing" textLength="115.7188" x="52.28" y="246.1851">id : integer &#171;PK&#187;</text><line style="stroke:#181818;stroke-width:1;" x1="33.28" x2="229.0808" y1="253.4869" y2="253.4869"/><text fill="#000000" font-family="sans-serif" font-size="14" lengthAdjust="spacing" textLength="185.8008" x="38.28" y="270.482">messung_id : integer &#171;FK&#187;</text><text fill="#000000" font-family="sans-serif" font-size="14" lengthAdjust="spacing" textLength="125.6992" x="38.28" y="286.7789">schenkel : integer</text><text fill="#000000" font-family="sans-serif" font-size="14" lengthAdjust="spacing" textLength="119.1914" x="38.28" y="303.0757">position : integer</text></g><!--class messwert--><g class="entity" data-entity="messwert" data-source-line="66" data-uid="ent0008" id="entity_messwert"><rect fill="#F1F1F1" height="113.1875" rx="2.5" ry="2.5" style="stroke:#181818;stroke-width:0.5;" width="213.4004" x="24.48" y="7"/><ellipse cx="92.8565" cy="23" fill="#ADD1B2" rx="11" ry="11" style="stroke:#181818;stroke-width:1;"/><path d="M96.9658,29 L89.2471,29 L89.2471,16.6094 L96.9658,16.6094 L96.9658,18.7656 L91.7002,18.7656 L91.7002,21.4375 L96.4658,21.4375 L96.4658,23.5938 L91.7002,23.5938 L91.7002,26.8438 L96.9658,26.8438 L96.9658,29 Z " fill="#000000"/><text fill="#000000" font-family="sans-serif" font-size="14" lengthAdjust="spacing" textLength="68.1475" x="113.3565" y="27.8467">messwert</text><line style="stroke:#181818;stroke-width:0.5;" x1="25.48" x2="236.8804" y1="39" y2="39"/><ellipse cx="35.48" cy="52.6484" fill="#000000" rx="3" ry="3" style="stroke:#000000;stroke-width:1;"/><text fill="#000000" font-family="sans-serif" font-size="14" lengthAdjust="spacing" textLength="115.7188" x="44.48" y="55.9951">id : integer &#171;PK&#187;</text><line style="stroke:#181818;stroke-width:1;" x1="25.48" x2="236.8804" y1="63.2969" y2="63.2969"/><text fill="#000000" font-family="sans-serif" font-size="14" lengthAdjust="spacing" textLength="201.4004" x="30.48" y="80.292">messsonde_id : integer &#171;FK&#187;</text><text fill="#000000" font-family="sans-serif" font-size="14" lengthAdjust="spacing" textLength="100.1191" x="30.48" y="96.5889">wert : decimal</text><text fill="#000000" font-family="sans-serif" font-size="14" lengthAdjust="spacing" textLength="154.7041" x="30.48" y="112.8857">zeitpunkt : timestamp</text></g><!--class messsondenkalibrierung--><g class="entity" data-entity="messsondenkalibrierung" data-source-line="74" data-uid="ent0009" id="entity_messsondenkalibrierung"><rect fill="#F1F1F1" height="129.4844" rx="2.5" ry="2.5" style="stroke:#181818;stroke-width:0.5;" width="248.3525" x="290" y="387.38"/><ellipse cx="324.9837" cy="403.38" fill="#ADD1B2" rx="11" ry="11" style="stroke:#181818;stroke-width:1;"/><path d="M329.0931,409.38 L321.3743,409.38 L321.3743,396.9894 L329.0931,396.9894 L329.0931,399.1456 L323.8274,399.1456 L323.8274,401.8175 L328.5931,401.8175 L328.5931,403.9738 L323.8274,403.9738 L323.8274,407.2238 L329.0931,407.2238 L329.0931,409.38 Z " fill="#000000"/><text fill="#000000" font-family="sans-serif" font-size="14" lengthAdjust="spacing" textLength="171.9443" x="343.4245" y="408.2267">messsondenkalibrierung</text><line style="stroke:#181818;stroke-width:0.5;" x1="291" x2="537.3525" y1="419.38" y2="419.38"/><ellipse cx="301" cy="433.0284" fill="#000000" rx="3" ry="3" style="stroke:#000000;stroke-width:1;"/><text fill="#000000" font-family="sans-serif" font-size="14" lengthAdjust="spacing" textLength="115.7188" x="310" y="436.3751">id : integer &#171;PK&#187;</text><line style="stroke:#181818;stroke-width:1;" x1="291" x2="537.3525" y1="443.6769" y2="443.6769"/><text fill="#000000" font-family="sans-serif" font-size="14" lengthAdjust="spacing" textLength="236.3525" x="296" y="460.672">messeinstellung_id : integer &#171;FK&#187;</text><text fill="#000000" font-family="sans-serif" font-size="14" lengthAdjust="spacing" textLength="125.6992" x="296" y="476.9689">schenkel : integer</text><text fill="#000000" font-family="sans-serif" font-size="14" lengthAdjust="spacing" textLength="119.1914" x="296" y="493.2657">position : integer</text><text fill="#000000" font-family="sans-serif" font-size="14" lengthAdjust="spacing" textLength="201.5303" x="296" y="509.5626">kalibrierungsfaktor : decimal</text></g><!--link spule to spuletyp--><g class="link" data-entity-1="spule" data-entity-2="spuletyp" data-source-line="84" data-uid="lnk10" id="link_spule_spuletyp"><path codeLine="84" d="M411.18,1035.96 C411.18,1060.93 411.18,1071.94 411.18,1096.4" fill="none" id="spule-spuletyp" style="stroke:#181818;stroke-width:1;stroke-dasharray:7.0,7.0;"/><line style="stroke:#181818;stroke-width:1;" x1="411.18" x2="405.18" y1="1035.96" y2="1027.96"/><line style="stroke:#181818;stroke-width:1;" x1="411.18" x2="417.18" y1="1035.96" y2="1027.96"/><line style="stroke:#181818;stroke-width:1;" x1="411.18" x2="411.18" y1="1035.96" y2="1027.96"/><line style="stroke:#181818;stroke-width:1;" x1="407.18" x2="415.18" y1="1037.96" y2="1037.96"/><line style="stroke:#181818;stroke-width:1;" x1="415.18" x2="407.18" y1="1100.4" y2="1100.4"/><line style="stroke:#181818;stroke-width:1;" x1="415.18" x2="407.18" y1="1097.4" y2="1097.4"/><line style="stroke:#181818;stroke-width:1;" x1="411.18" x2="411.18" y1="1096.4" y2="1104.4"/><text fill="#000000" font-family="sans-serif" font-size="13" lengthAdjust="spacing" textLength="74.2803" x="412.18" y="1070.6769">spuletyp_id</text></g><!--link messeinstellung to spule--><g class="link" data-entity-1="messeinstellung" data-entity-2="spule" data-source-line="85" data-uid="lnk11" id="link_messeinstellung_spule"><path codeLine="85" d="M331.4749,779.5796 C337.2249,789.4896 338.89,792.58 344.18,802.24 C352.35,817.17 357.0868,826.0974 364.9868,841.7574" fill="none" id="messeinstellung-spule" style="stroke:#181818;stroke-width:1;stroke-dasharray:7.0,7.0;"/><line style="stroke:#181818;stroke-width:1;" x1="331.4749" x2="322.2703" y1="779.5796" y2="775.6712"/><line style="stroke:#181818;stroke-width:1;" x1="331.4749" x2="332.6497" y1="779.5796" y2="769.6488"/><line style="stroke:#181818;stroke-width:1;" x1="331.4749" x2="327.46" y1="779.5796" y2="772.66"/><line style="stroke:#181818;stroke-width:1;" x1="329.0188" x2="335.9384" y1="783.3169" y2="779.302"/><line style="stroke:#181818;stroke-width:1;" x1="370.3597" x2="363.2171" y1="843.5271" y2="847.1303"/><line style="stroke:#181818;stroke-width:1;" x1="369.0085" x2="361.8659" y1="840.8486" y2="844.4518"/><line style="stroke:#181818;stroke-width:1;" x1="364.9868" x2="368.59" y1="841.7574" y2="848.9"/><text fill="#000000" font-family="sans-serif" font-size="13" lengthAdjust="spacing" textLength="53.2378" x="352.18" y="815.3069">spule_id</text></g><!--link messeinstellung to messsondentyp--><g class="link" data-entity-1="messeinstellung" data-entity-2="messsondentyp" data-source-line="86" data-uid="lnk12" id="link_messeinstellung_messsondentyp"><path codeLine="86" d="M225.2252,779.8055 C221.0952,789.7255 220.35,792.41 217.18,802.24 C210.68,822.34 207.1224,836.8193 203.3624,857.4793" fill="none" id="messeinstellung-messsondentyp" style="stroke:#181818;stroke-width:1;stroke-dasharray:7.0,7.0;"/><line style="stroke:#181818;stroke-width:1;" x1="225.2252" x2="222.7609" y1="779.8055" y2="770.1139"/><line style="stroke:#181818;stroke-width:1;" x1="225.2252" x2="233.8391" y1="779.8055" y2="774.7261"/><line style="stroke:#181818;stroke-width:1;" x1="225.2252" x2="228.3" y1="779.8055" y2="772.42"/><line style="stroke:#181818;stroke-width:1;" x1="220.7637" x2="228.1492" y1="780.1145" y2="783.1893"/><line style="stroke:#181818;stroke-width:1;" x1="206.5816" x2="198.7109" y1="862.1309" y2="860.6984"/><line style="stroke:#181818;stroke-width:1;" x1="207.1187" x2="199.248" y1="859.1793" y2="857.7469"/><line style="stroke:#181818;stroke-width:1;" x1="203.3624" x2="201.93" y1="857.4793" y2="865.35"/><text fill="#000000" font-family="sans-serif" font-size="13" lengthAdjust="spacing" textLength="121.0688" x="218.18" y="815.3069">messsondentyp_id</text></g><!--link messung to messeinstellung--><g class="link" data-entity-1="messung" data-entity-2="messeinstellung" data-source-line="87" data-uid="lnk13" id="link_messung_messeinstellung"><path codeLine="87" d="M175.1373,523.9881 C189.8273,547.6681 198.3036,561.3414 214.0936,586.8014" fill="none" id="messung-messeinstellung" style="stroke:#181818;stroke-width:1;stroke-dasharray:7.0,7.0;"/><line style="stroke:#181818;stroke-width:1;" x1="175.1373" x2="165.8214" y1="523.9881" y2="520.3529"/><line style="stroke:#181818;stroke-width:1;" x1="175.1373" x2="176.0186" y1="523.9881" y2="514.0271"/><line style="stroke:#181818;stroke-width:1;" x1="175.1373" x2="170.92" y1="523.9881" y2="517.19"/><line style="stroke:#181818;stroke-width:1;" x1="172.7925" x2="179.5906" y1="527.7963" y2="523.579"/><line style="stroke:#181818;stroke-width:1;" x1="219.6011" x2="212.8025" y1="588.0925" y2="592.3089"/><line style="stroke:#181818;stroke-width:1;" x1="218.0199" x2="211.2213" y1="585.543" y2="589.7594"/><line style="stroke:#181818;stroke-width:1;" x1="214.0936" x2="218.31" y1="586.8014" y2="593.6"/><text fill="#000000" font-family="sans-serif" font-size="13" lengthAdjust="spacing" textLength="124.2427" x="199.18" y="559.9269">messeinstellung_id</text></g><!--link messsonde to messung--><g class="link" data-entity-1="messsonde" data-entity-2="messung" data-source-line="88" data-uid="lnk14" id="link_messsonde_messung"><path codeLine="88" d="M131.18,318.78 C131.18,342.58 131.18,354.47 131.18,379.09" fill="none" id="messsonde-messung" style="stroke:#181818;stroke-width:1;stroke-dasharray:7.0,7.0;"/><line style="stroke:#181818;stroke-width:1;" x1="131.18" x2="125.18" y1="318.78" y2="310.78"/><line style="stroke:#181818;stroke-width:1;" x1="131.18" x2="137.18" y1="318.78" y2="310.78"/><line style="stroke:#181818;stroke-width:1;" x1="131.18" x2="131.18" y1="318.78" y2="310.78"/><line style="stroke:#181818;stroke-width:1;" x1="127.18" x2="135.18" y1="320.78" y2="320.78"/><line style="stroke:#181818;stroke-width:1;" x1="135.18" x2="127.18" y1="383.09" y2="383.09"/><line style="stroke:#181818;stroke-width:1;" x1="135.18" x2="127.18" y1="380.09" y2="380.09"/><line style="stroke:#181818;stroke-width:1;" x1="131.18" x2="131.18" y1="379.09" y2="387.09"/><text fill="#000000" font-family="sans-serif" font-size="13" lengthAdjust="spacing" textLength="77.3018" x="132.18" y="353.4469">messung_id</text></g><!--link messwert to messsonde--><g class="link" data-entity-1="messwert" data-entity-2="messsonde" data-source-line="89" data-uid="lnk15" id="link_messwert_messsonde"><path codeLine="89" d="M131.18,128.55 C131.18,152.6 131.18,164.66 131.18,188.72" fill="none" id="messwert-messsonde" style="stroke:#181818;stroke-width:1;stroke-dasharray:7.0,7.0;"/><line style="stroke:#181818;stroke-width:1;" x1="131.18" x2="125.18" y1="128.55" y2="120.55"/><line style="stroke:#181818;stroke-width:1;" x1="131.18" x2="137.18" y1="128.55" y2="120.55"/><line style="stroke:#181818;stroke-width:1;" x1="131.18" x2="131.18" y1="128.55" y2="120.55"/><line style="stroke:#181818;stroke-width:1;" x1="127.18" x2="135.18" y1="130.55" y2="130.55"/><line style="stroke:#181818;stroke-width:1;" x1="135.18" x2="127.18" y1="192.72" y2="192.72"/><line style="stroke:#181818;stroke-width:1;" x1="135.18" x2="127.18" y1="189.72" y2="189.72"/><line style="stroke:#181818;stroke-width:1;" x1="131.18" x2="131.18" y1="188.72" y2="196.72"/><text fill="#000000" font-family="sans-serif" font-size="13" lengthAdjust="spacing" textLength="91.7871" x="132.18" y="163.2569">messsonde_id</text></g><!--link messsondenkalibrierung to messeinstellung--><g class="link" data-entity-1="messsondenkalibrierung" data-entity-2="messeinstellung" data-source-line="90" data-uid="lnk16" id="link_messsondenkalibrierung_messeinstellung"><path codeLine="90" d="M370.5156,524.0023 C355.9356,547.6823 347.5252,561.3282 331.8452,586.7882" fill="none" id="messsondenkalibrierung-messeinstellung" style="stroke:#181818;stroke-width:1;stroke-dasharray:7.0,7.0;"/><line style="stroke:#181818;stroke-width:1;" x1="370.5156" x2="369.6008" y1="524.0023" y2="514.0442"/><line style="stroke:#181818;stroke-width:1;" x1="370.5156" x2="379.8192" y1="524.0023" y2="520.3358"/><line style="stroke:#181818;stroke-width:1;" x1="370.5156" x2="374.71" y1="524.0023" y2="517.19"/><line style="stroke:#181818;stroke-width:1;" x1="366.0609" x2="372.8732" y1="523.6082" y2="527.8025"/><line style="stroke:#181818;stroke-width:1;" x1="333.1535" x2="326.3417" y1="592.2917" y2="588.0965"/><line style="stroke:#181818;stroke-width:1;" x1="334.7267" x2="327.9149" y1="589.7373" y2="585.5421"/><line style="stroke:#181818;stroke-width:1;" x1="331.8452" x2="327.65" y1="586.7882" y2="593.6"/><text fill="#000000" font-family="sans-serif" font-size="13" lengthAdjust="spacing" textLength="124.2427" x="357.18" y="559.9269">messeinstellung_id</text></g><!--SRC=[hLHBRjj03Dth58Di0XH83c04MRQB843H2nYqH4kC9CvqFWtYEdSlHwgh6TcgbQ8R0I8VoKS-ScxL5wk3sQXdS1wjgi13WUp9lobdGeV-pQYVXLAV55LgeuWzre9xUFZwzFWezhix-J3qACuVOCi6h1XSsI2ts1sWwQOeSUo0gvr5yX5VOKazT2EUoiOt6flSKGL9sQDpKZEri_Pq48lpbhWkteiJwOXrcYlv_IVc5yYTitgbikq2r-wiltDUjzE4YPNUlM3fNJRYwonFIcndcCyZ1iBUMwWTswoLazdeqJEn3FamaRYHhZE8xh66AoEVMaDmmM8lNRbK24aiMzN5KQriSg73JDK5pFaI3W5RO_Nsj8_vBc9C6sLq1fWZoRJVoRst-3qW7zPluAg6PnDQ4fVt43TD13A1swYI9mdrq9ke7LTBhkitiexZChUBOvLr8q-Q4sDU-XMjNrTv8BbGUyYI2d9v39TUXXOwsbb2-nzbMZiAfTBgRW-jr-ar3cVr3Jk8SQuXuuhnaNW_tjyVZzEZl54toRDmKyplBSN_0VyDcR-S4Z4_kZ5o5f4c-XsJ3skC6jSjYKlmAMvGTKue8vEdpBNy4AzV]--></g></svg>