<svg xmlns="http://www.w3.org/2000/svg" width="322" height="412" data-diagram-type="DESCRIPTION" preserveAspectRatio="none" style="width:322px;height:412px;background:#fff"><circle cx="35.124" cy="319.53" r="8" fill="#F1F1F1" style="stroke:#181818;stroke-width:.5"/><path fill="none" d="M35.124 327.53v27m-13-19h26m-13 19-13 15m13-15 13 15" style="stroke:#181818;stroke-width:.5"/><text x="6" y="384.025" font-family="sans-serif" font-size="14" textLength="58.249">Monteur</text><circle cx="35.122" cy="104.53" r="8" fill="#F1F1F1" style="stroke:#181818;stroke-width:.5"/><path fill="none" d="M35.122 112.53v27m-13-19h26m-13 19-13 15m13-15 13 15" style="stroke:#181818;stroke-width:.5"/><text x="12.69" y="169.025" font-family="sans-serif" font-size="14" textLength="44.864">Admin</text><ellipse cx="220.341" cy="314.176" fill="#F1F1F1" rx="49.441" ry="14.686" style="stroke:#181818;stroke-width:.5"/><text x="190.958" y="317.923" font-family="sans-serif" font-size="14" textLength="52.767">Messen</text><ellipse cx="220.337" cy="385.177" fill="#F1F1F1" rx="96.087" ry="21.617" style="stroke:#181818;stroke-width:.5"/><text x="142.64" y="388.024" font-family="sans-serif" font-size="14" textLength="155.394">Messung Visualisieren</text><ellipse cx="220.342" cy="26.178" fill="#F1F1F1" rx="88.892" ry="20.178" style="stroke:#181818;stroke-width:.5"/><text x="150.728" y="29.025" font-family="sans-serif" font-size="14" textLength="139.227">SpulenTyp erstellen</text><ellipse cx="220.344" cy="98.183" fill="#F1F1F1" rx="74.464" ry="17.293" style="stroke:#181818;stroke-width:.5"/><text x="165.028" y="101.93" font-family="sans-serif" font-size="14" textLength="104.631">Spule erstellen</text><ellipse cx="220.34" cy="170.18" fill="#F1F1F1" rx="89" ry="20.2" style="stroke:#181818;stroke-width:.5"/><text x="150.603" y="173.027" font-family="sans-serif" font-size="14" textLength="139.474">Sensoren verwalten</text><ellipse cx="220.335" cy="245.175" fill="#F1F1F1" rx="86.775" ry="19.755" style="stroke:#181818;stroke-width:.5"/><text x="153.134" y="248.022" font-family="sans-serif" font-size="14" textLength="134.401">Messung einstellen</text><path fill="none" d="m64.35 343.79 107.556-20.544" style="stroke:#181818;stroke-width:1"/><path fill="#181818" d="m177.8 322.12-9.591-2.24 4.68 3.178-3.179 4.679 8.09-5.617z" style="stroke:#181818;stroke-width:1"/><path fill="none" d="M64.35 354.73c21.98 4.32 47.623 9.353 76.523 15.033" style="stroke:#181818;stroke-width:1"/><path fill="#181818" d="m146.76 370.92-8.06-5.661 3.154 4.697-4.696 3.153 9.602-2.189z" style="stroke:#181818;stroke-width:1"/><path fill="none" d="M57.91 113.44c17.03-15.39 41.85-36.09 66.34-50.26 13.64-7.89 23.69-12.617 38.31-18.237" style="stroke:#181818;stroke-width:1"/><path fill="#181818" d="m168.16 42.79-9.836-.504 5.169 2.298-2.298 5.169 6.965-6.963z" style="stroke:#181818;stroke-width:1"/><path fill="none" d="M57.86 129.91c25.59-5.03 63.212-12.424 98.622-19.374" style="stroke:#181818;stroke-width:1"/><path fill="#181818" d="m162.37 109.38-9.602-2.192 4.696 3.155-3.155 4.696 8.061-5.659z" style="stroke:#181818;stroke-width:1"/><path fill="none" d="M57.86 138.45c23.13 4.55 55.002 10.813 88.193 17.333" style="stroke:#181818;stroke-width:1"/><path fill="#181818" d="m151.94 156.94-8.06-5.66 3.154 4.696-4.696 3.154 9.602-2.19z" style="stroke:#181818;stroke-width:1"/><path fill="none" d="M57.76 155.86c16.95 16.08 41.74 37.66 66.49 52.32 13.72 8.13 23.937 12.964 38.687 18.614" style="stroke:#181818;stroke-width:1"/><path fill="#181818" d="m168.54 228.94-6.974-6.955 2.305 5.167-5.166 2.304 9.835-.516z" style="stroke:#181818;stroke-width:1"/></svg>